<svg height="24" viewBox="0 0 24 24" width="24" xmlns="http://www.w3.org/2000/svg"><path d="m6 9c0-.55.45-1 1-1s1 .45 1 1-.45 1-1 1-1-.45-1-1m11 1c.55 0 1-.45 1-1s-.45-1-1-1-1 .45-1 1 .45 1 1 1m5-.07v1.07c0 4.97-4.03 9-9 9h-2c-4.97 0-9-4-9-9v-1.07c0-3.28 2.65-5.93 5.93-5.93h8.14c3.28 0 5.93 2.65 5.93 5.93m-7.5-.93c0 1.38 1.12 2.5 2.5 2.5s2.5-1.12 2.5-2.5-1.12-2.5-2.5-2.5-2.5 1.12-2.5 2.5m-10 0c0 1.38 1.12 2.5 2.5 2.5s2.5-1.12 2.5-2.5-1.12-2.5-2.5-2.5-2.5 1.12-2.5 2.5m4.5 8c0-.55-.45-1-1-1s-1 .45-1 1 .45 1 1 1 1-.45 1-1m4.5 0c0-.83-.67-1.5-1.5-1.5s-1.5.67-1.5 1.5.67 1.5 1.5 1.5 1.5-.67 1.5-1.5m3.5 0c0-.55-.45-1-1-1s-1 .45-1 1 .45 1 1 1 1-.45 1-1m2.97-5.34c-.74.84-1.79 1.34-2.97 1.34-2.21 0-4-1.79-4-4 0-1.2.54-2.27 1.38-3h-4.76c.84.73 1.38 1.8 1.38 3 0 2.21-1.79 4-4 4-1.18 0-2.24-.5-2.97-1.34.16 1.66.9 3.16 2.01 4.28 1.67-1.21 3.72-1.94 5.96-1.94s4.29.73 5.96 1.94c1.11-1.12 1.85-2.62 2.01-4.28z"/></svg>