<svg viewBox="0 0 300 300.621" xmlns="http://www.w3.org/2000/svg"><path d="M175 25.12h-50a87.5 87.5 0 0 0-87.5 87.5v75a87.5 87.5 0 0 0 87.5 87.5h50a87.5 87.5 0 0 0 87.5-87.5v-75a87.5 87.5 0 0 0-87.5-87.5zm62.5 162.5a62.5 62.5 0 0 1-62.5 62.5h-3.375a25 25 0 0 0-43.25 0H125a62.5 62.5 0 0 1-62.5-62.5v-75a62.5 62.5 0 0 1 62.5-62.5h12.5v25h25v-25H175a62.5 62.5 0 0 1 62.5 62.5zm-53.125-87.5a9.375 9.375 0 1 1 9.375 9.376 9.5 9.5 0 0 1-9.375-9.375zm21.875 34.376a12.5 12.5 0 1 1-12.5-12.5 12.5 12.5 0 0 1 12.5 12.5zm0 37.5a12.5 12.5 0 1 1-12.5-12.5 12.5 12.5 0 0 1 12.5 12.5zm-43.75 37.5a12.5 12.5 0 1 1-12.5-12.5 12.5 12.5 0 0 1 12.5 12.5zm-43.75-37.5a12.5 12.5 0 1 1-12.5-12.5 12.5 12.5 0 0 1 12.5 12.5zm0-37.5a12.5 12.5 0 1 1-12.5-12.5 12.5 12.5 0 0 1 12.5 12.5zM96.875 100.12a9.375 9.375 0 1 1 9.375 9.376 9.5 9.5 0 0 1-9.375-9.375z"/></svg>